<svg id="Layer_1" data-name="Layer 1" xmlns="http://www.w3.org/2000/svg" viewBox="0 0 826.99 865.97"><defs><style>.cls-1{stroke:#000;stroke-miterlimit:10;}.cls-2{font-size:145px;font-family:MyriadPro-Regular, Myriad Pro;}.cls-3{letter-spacing:0.01em;}</style></defs><title>device</title><path class="cls-1" d="M836.83,83.3H205.76a97.45,97.45,0,0,0-97.46,97.46V850.81a97.45,97.45,0,0,0,97.46,97.46H836.83a97.46,97.46,0,0,0,97.46-97.46v-670A97.46,97.46,0,0,0,836.83,83.3ZM888.53,811a86.47,86.47,0,0,1-86.48,86.47H244.49A86.46,86.46,0,0,1,158,811V213.84a86.46,86.46,0,0,1,86.47-86.47H802.05a86.47,86.47,0,0,1,86.48,86.47Z" transform="translate(-107.8 -82.8)"/><text class="cls-2" transform="translate(180.73 472.13)">D<tspan class="cls-3" x="96.57" y="0">E</tspan><tspan x="169.21" y="0">VICE</tspan></text></svg>