<svg id="Layer_1" data-name="Layer 1" xmlns="http://www.w3.org/2000/svg" viewBox="0 0 1024 1024"><title>photo-camera</title><path d="M822.66,213.12H674l5.26,11.06,10.9,22.92h98.3c47,0,85.14,29.84,85.14,66.67V774.13c0,36.82-38.12,66.66-85.14,66.66H239.47c-47,0-85.14-29.84-85.14-66.66V313.77c0-36.83,38.11-66.67,85.14-66.67H359.36l11-23.23,5.12-10.75H201.33c-53,0-96,33.64-96,75.14v516.6c0,41.5,43,75.14,96,75.14H822.66c53,0,96-33.64,96-75.14V288.26C918.62,246.76,875.66,213.12,822.66,213.12Z"/><path d="M652.16,418.39c-110.76,0-200.54,89.78-200.54,200.53S541.4,819.46,652.16,819.46,852.7,729.68,852.7,618.92,762.91,418.39,652.16,418.39Zm0,362.25A161.72,161.72,0,1,1,813.88,618.92,161.71,161.71,0,0,1,652.16,780.64Z"/><path d="M809.33,294H745.17c-6.32,0-11.44,9.74-11.44,21.76v22.18c0,12,5.12,21.76,11.44,21.76h64.16c6.31,0,11.44-9.73,11.44-21.76V315.74C820.77,303.72,815.64,294,809.33,294Zm6.61,39.14c0,9.61-4.09,17.4-9.14,17.4H747.92c-5,0-9.14-7.79-9.14-17.4V320.55c0-9.61,4.09-17.4,9.14-17.4H806.8c5.05,0,9.14,7.79,9.14,17.4Z"/><path d="M652.16,477.33A141.6,141.6,0,1,0,793.75,618.92,141.59,141.59,0,0,0,652.16,477.33Zm0,255.77A114.18,114.18,0,1,1,766.34,618.92,114.18,114.18,0,0,1,652.16,733.1Z"/><rect x="310.18" y="280.54" width="35.84" height="530.79" rx="14.83"/><path d="M713.66,236.19,690.4,246.88,679.13,224l-5.44-11.06-11.32-23v0l-6.18-12.56h0l-.4-.8.35-.17a38.27,38.27,0,0,0-30.19-14.7H423.66a38.31,38.31,0,0,0-30.39,14.93l.35.16-4,8.16h0l-11.5,23.59-5.25,10.76-11.34,23.23v0l-.1,0-23-10.66,11.38-23.33L370.54,166l.38.18.08,0A47,47,0,0,1,411,144H638.83a47,47,0,0,1,39.81,22h0l.38-.18,23.16,47.09Z"/><rect x="517.09" y="118.66" width="17.92" height="200.97" rx="6.45" transform="translate(306.9 745.19) rotate(-90)"/><path d="M965.59,0H58.41A58.41,58.41,0,0,0,0,58.41V965.59A58.41,58.41,0,0,0,58.41,1024H965.59A58.41,58.41,0,0,0,1024,965.59V58.41A58.41,58.41,0,0,0,965.59,0Zm29,931.91a54.42,54.42,0,0,1-54.43,54.43H89.25a54.42,54.42,0,0,1-54.42-54.43V92.09A54.42,54.42,0,0,1,89.25,37.66H940.12a54.42,54.42,0,0,1,54.43,54.43Z"/></svg>