<svg id="Layer_1" data-name="Layer 1" xmlns="http://www.w3.org/2000/svg" viewBox="0 0 1024 1024"><defs><style>.cls-1{font-size:200px;font-family:MyriadPro-Regular, Myriad Pro;}.cls-2{letter-spacing:-0.02em;}.cls-3{letter-spacing:-0.03em;}</style></defs><title>photo-camera-squared</title><path d="M0,0V1024H1024V0ZM995.29,995.29H28.71V28.71H995.29Z"/><path d="M713.06,636.31A120.52,120.52,0,1,0,833.58,756.82,120.51,120.51,0,0,0,713.06,636.31Zm0,0A120.52,120.52,0,1,0,833.58,756.82,120.51,120.51,0,0,0,713.06,636.31Zm0-18.36A138.88,138.88,0,1,0,851.94,756.82,138.87,138.87,0,0,0,713.06,618Zm0,272.1A133.23,133.23,0,1,1,846.29,756.82,133.23,133.23,0,0,1,713.06,890.05Zm0-253.74A120.52,120.52,0,1,0,833.58,756.82,120.51,120.51,0,0,0,713.06,636.31Zm0-18.36A138.88,138.88,0,1,0,851.94,756.82,138.87,138.87,0,0,0,713.06,618Zm0,272.1A133.23,133.23,0,1,1,846.29,756.82,133.23,133.23,0,0,1,713.06,890.05Zm0-253.74A120.52,120.52,0,1,0,833.58,756.82,120.51,120.51,0,0,0,713.06,636.31ZM618.65,495.12V457H372.29v38.12H94.18V941.24H905.94V495.12ZM288.29,891.82H274.18v-348h14.11Zm558-361.11a18.71,18.71,0,1,1-18.7,18.7A18.7,18.7,0,0,1,846.29,530.71ZM400,540.67l-11.5-16.38V474.65H602.41v49.64L590.9,540.68l-11.55-8.12,5.81-8.27H405.77l5.81,8.27Zm313,369.68A153.53,153.53,0,1,1,866.59,756.82,153.53,153.53,0,0,1,713.06,910.35Zm0-292.4A138.88,138.88,0,1,0,851.94,756.82,138.87,138.87,0,0,0,713.06,618Zm0,272.1A133.23,133.23,0,1,1,846.29,756.82,133.23,133.23,0,0,1,713.06,890.05Zm0-253.74A120.52,120.52,0,1,0,833.58,756.82,120.51,120.51,0,0,0,713.06,636.31Zm0,0A120.52,120.52,0,1,0,833.58,756.82,120.51,120.51,0,0,0,713.06,636.31Zm0,0A120.52,120.52,0,1,0,833.58,756.82,120.51,120.51,0,0,0,713.06,636.31Z"/><text class="cls-1" transform="translate(195.82 296.47)">PH<tspan class="cls-2" x="236.8" y="0">O</tspan><tspan class="cls-3" x="369.6" y="0">T</tspan><tspan x="463.6" y="0">O</tspan></text></svg>